<?xml version="1.0" encoding="utf-8"?>
<!-- Generator: Adobe Illustrator 24.2.1, SVG Export Plug-In . SVG Version: 6.00 Build 0)  -->
<svg version="1.1" id="Capa_2" xmlns="http://www.w3.org/2000/svg" xmlns:xlink="http://www.w3.org/1999/xlink" x="0px" y="0px"
	 viewBox="0 0 400 400" style="enable-background:new 0 0 400 400;" xml:space="preserve">
<style type="text/css">
	.st0{fill:#73443F;}
	.st1{fill:none;stroke:#73443F;stroke-width:1.6573;stroke-linecap:round;stroke-miterlimit:10;}
</style>
<g>
	<g>
		<path class="st0" d="M189.16,219.31c1.43,35.79,24.33,38.65,24.33,38.65s-50.1,5.73-68.71-20.04
			c-15.88-21.99-14.31-51.53,2.86-57.26C162.65,175.66,187.67,182.18,189.16,219.31z"/>
		<path class="st0" d="M260.18,218.51c-1.6,11.53-4.46,15.83-4.46,15.83s15.9-0.71,21.57-11c4.84-8.78,2.94-19.55-3.62-20.87
			C267.94,201.31,262.06,204.91,260.18,218.51z"/>
		<path class="st0" d="M213.49,206.43c18.93-15.14,34.35-27.2,34.35-27.2s14.31,25.77,5.18,50.22
			c-7.87,21.07-33.81,28.51-43.83,21.35C199.36,243.77,192.02,223.6,213.49,206.43z"/>
	</g>
	<g>
		<path class="st1" d="M200.01,176.93l-5.16-9.02c-2.5-4.37-1.31-9.91,2.76-12.87h0c3.54-2.57,4.96-7.17,3.49-11.29l-3.48-9.74"/>
		<path class="st1" d="M215.94,176.93l-5.16-9.02c-2.5-4.37-1.31-9.91,2.76-12.87h0c3.54-2.57,4.96-7.17,3.49-11.29l-3.48-9.74"/>
		<path class="st1" d="M184.89,176.93l-5.16-9.02c-2.5-4.37-1.31-9.91,2.76-12.87h0c3.54-2.57,4.96-7.17,3.49-11.29l-3.48-9.74"/>
	</g>
</g>
</svg>
